HIERARCHY
ROOT SpineBase
{
  OFFSET 0.000000 0.000000 0.000000
  CHANNELS 6 Xposition Yposition Zposition Zrotation Xrotation Yrotation
  JOINT SpineMid
  {
    OFFSET 0.000000 35.159178 0.000000
    CHANNELS 3 Zrotation Xrotation Yrotation
    JOINT SpineShoulder
    {
      OFFSET -0.323707 26.138959 -0.787069
      CHANNELS 3 Zrotation Xrotation Yrotation
      JOINT Neck
      {
        OFFSET -0.243555 8.641784 -0.597914
        CHANNELS 3 Zrotation Xrotation Yrotation
        JOINT Head
        {
          OFFSET -3.646071 9.630169 4.118781
          CHANNELS 3 Zrotation Xrotation Yrotation
          End Site
          {
            OFFSET 0 0 0
          }
        }
      }
      JOINT ShoulderLeft
      {
        OFFSET -10.148635 -5.716841 -9.071932
        CHANNELS 3 Zrotation Xrotation Yrotation
        JOINT ElbowLeft
        {
          OFFSET -3.729490 -14.562075 24.111433
          CHANNELS 3 Zrotation Xrotation Yrotation
          JOINT WristLeft
          {
            OFFSET 2.703166 -27.990217 8.987286
            CHANNELS 3 Zrotation Xrotation Yrotation
            JOINT HandLeft
            {
              OFFSET -2.587970 -6.512601 0.493182
              CHANNELS 3 Zrotation Xrotation Yrotation
              JOINT HandTipLeft
              {
                OFFSET -1.295017 -1.469757 -0.254380
                CHANNELS 3 Zrotation Xrotation Yrotation
                End Site
                {
                  OFFSET 0 0 0
                }
              }
              JOINT ThumbLeft
              {
                OFFSET 0.015190 1.207192 -3.037168
                CHANNELS 3 Zrotation Xrotation Yrotation
                End Site
                {
                  OFFSET 0 0 0
                }
              }
            }
          }
        }
      }
      JOINT ShoulderRight
      {
        OFFSET -0.340243 -4.523511 -12.321753
        CHANNELS 3 Zrotation Xrotation Yrotation
        JOINT ElbowRight
        {
          OFFSET -6.184821 -27.834043 -3.724221
          CHANNELS 3 Zrotation Xrotation Yrotation
          JOINT WristRight
          {
            OFFSET -7.087414 -22.059059 3.857674
            CHANNELS 3 Zrotation Xrotation Yrotation
            JOINT HandRight
            {
              OFFSET 0.161431 -8.573251 2.279515
              CHANNELS 3 Zrotation Xrotation Yrotation
              JOINT HandTipRight
              {
                OFFSET -3.152056 -8.371960 0.334260
                CHANNELS 3 Zrotation Xrotation Yrotation
                End Site
                {
                  OFFSET 0 0 0
                }
              }
              JOINT ThumbRight
              {
                OFFSET 5.266895 -0.987153 -1.552433
                CHANNELS 3 Zrotation Xrotation Yrotation
                End Site
                {
                  OFFSET 0 0 0
                }
              }
            }
          }
        }
      }
    }
  }
  JOINT HipLeft
  {
    OFFSET -7.119276 -0.126530 -0.443800
    CHANNELS 3 Zrotation Xrotation Yrotation
    JOINT KneeLeft
    {
      OFFSET 23.868330 -27.893656 12.972267
      CHANNELS 3 Zrotation Xrotation Yrotation
      JOINT AnkleLeft
      {
        OFFSET 7.550591 -35.440764 5.464100
        CHANNELS 3 Zrotation Xrotation Yrotation
        JOINT FootLeft
        {
          OFFSET -8.953685 -1.904587 -13.837906
          CHANNELS 3 Zrotation Xrotation Yrotation
          End Site
          {
            OFFSET 0 0 0
          }
        }
      }
    }
  }
  JOINT HipRight
  {
    OFFSET 5.548424 2.366182 -6.545173
    CHANNELS 3 Zrotation Xrotation Yrotation
    JOINT KneeRight
    {
      OFFSET -2.493012 -34.166006 2.180073
      CHANNELS 3 Zrotation Xrotation Yrotation
      JOINT AnkleRight
      {
        OFFSET 6.074587 -34.494596 -1.875258
        CHANNELS 3 Zrotation Xrotation Yrotation
        JOINT FootRight
        {
          OFFSET -6.092419 -6.668570 -0.918721
          CHANNELS 3 Zrotation Xrotation Yrotation
          End Site
          {
            OFFSET 0 0 0
          }
        }
      }
    }
  }
}
MOTION
Frames: 5
Frame Time: 0.033333
63.937742 72.829247 301.546367 2.393755 -0.060718 34.882156 -0.250211 0.036712 -34.815224 -0.378066 0.033620 0.056744 0.020935 -0.392216 -1.086118 0.000000 0.000000 0.000000 -1.789099 0.144249 -0.117540 -0.000000 0.000000 0.000000 -0.000000 0.000000 0.000000 -0.000000 0.000000 0.000000 0.000000 0.000000 0.000000 0.000000 0.000000 0.000000 0.511766 1.455056 -0.751358 0.445170 1.440261 0.165585 -4.771329 -3.690153 -0.330471 1.995137 4.859577 -0.940330 0.000000 0.000000 0.000000 0.000000 0.000000 0.000000 -2.087724 3.795149 -33.933096 2.643837 -3.089559 -0.908833 -0.611122 -0.463914 4.062520 0.000000 0.000000 0.000000 -2.844991 0.736056 -34.783855 0.362468 1.082778 -0.059356 0.577487 -1.702280 1.494194 0.000000 0.000000 0.000000
63.838404 72.683982 301.485245 2.423871 -0.035129 34.620054 -0.264644 -0.001843 -34.551904 -0.441332 0.023724 0.053733 0.094422 -0.103589 -1.008283 0.000000 0.000000 0.000000 -1.765430 0.167411 -0.114921 -0.000000 0.000000 0.000000 -0.000000 0.000000 0.000000 -0.000000 0.000000 0.000000 0.000000 0.000000 0.000000 0.000000 0.000000 0.000000 0.472369 1.406950 -0.722969 0.544422 1.257631 0.235044 -5.150263 -2.813721 -0.488639 1.848004 7.167671 -1.940094 0.000000 0.000000 0.000000 0.000000 0.000000 0.000000 -1.852342 3.557771 -33.529182 2.394469 -3.342869 -1.098780 -1.162435 0.351727 4.392997 0.000000 0.000000 0.000000 -2.876738 0.615651 -34.513169 0.295055 1.161776 -0.068997 0.275422 -1.840171 1.654988 0.000000 0.000000 0.000000
63.767802 72.676977 301.478024 2.510906 -0.074200 35.096619 -0.278215 0.026486 -35.026092 -0.436848 0.014800 0.055985 0.053231 0.089938 -0.964610 0.000000 0.000000 0.000000 -1.830755 0.202084 -0.117821 -0.000000 0.000000 0.000000 -0.000000 0.000000 0.000000 -0.000000 0.000000 0.000000 0.000000 0.000000 0.000000 0.000000 0.000000 0.000000 0.407445 1.381741 -0.712842 0.499286 1.137585 0.274662 -4.648247 -2.747513 -0.388457 2.879698 9.834398 -3.105298 0.000000 0.000000 0.000000 0.000000 0.000000 0.000000 -1.769768 3.831942 -33.839490 2.512062 -3.762325 -1.278981 -1.833712 1.410400 4.097519 0.000000 0.000000 0.000000 -2.905979 0.599451 -34.974269 0.213602 1.253463 -0.080240 0.080353 -1.879278 1.712152 0.000000 0.000000 0.000000
63.685972 72.803325 301.551073 2.636059 -0.184187 36.057955 -0.287959 0.102325 -35.983811 -0.386299 0.006317 0.061473 -0.217015 0.154059 -0.911705 0.000000 0.000000 0.000000 -1.956128 0.269487 -0.123239 -0.000000 0.000000 0.000000 -0.000000 0.000000 0.000000 -0.000000 0.000000 0.000000 0.000000 0.000000 0.000000 0.000000 0.000000 0.000000 -0.034486 1.169534 -0.606444 0.811442 1.512143 0.131227 -4.122388 -2.211394 -0.181177 5.282952 7.310260 -2.587048 0.000000 0.000000 0.000000 0.000000 0.000000 0.000000 -1.759907 4.519358 -34.596938 2.916516 -4.332372 -1.465887 -2.502211 2.493239 3.460689 0.000000 0.000000 0.000000 -2.880338 0.703161 -35.917013 0.108979 1.309980 -0.089954 0.106107 -1.822365 1.657043 0.000000 0.000000 0.000000
63.584729 73.088239 301.638690 2.782167 -0.352732 37.249488 -0.292996 0.183958 -37.170011 -0.283054 -0.035672 0.070143 -0.761431 0.143114 -0.834719 0.000000 0.000000 0.000000 -2.153562 0.424841 -0.129163 -0.000000 0.000000 0.000000 -0.000000 0.000000 0.000000 -0.000000 0.000000 0.000000 0.000000 0.000000 0.000000 0.000000 0.000000 0.000000 -0.275138 0.147297 -0.330046 -0.150860 3.949176 -0.754777 -0.013061 -4.078929 1.379564 4.587840 6.092105 -2.743552 0.000000 0.000000 0.000000 0.000000 0.000000 0.000000 -1.824222 5.440993 -35.626725 3.484112 -4.818579 -1.573888 -2.542372 2.304826 4.202772 0.000000 0.000000 0.000000 -2.782938 0.834648 -37.083616 -0.058560 1.371769 -0.103210 0.157719 -1.700777 1.539551 0.000000 0.000000 0.000000
